# xmcd CD database file
#
# Track frame offsets:
#	150
#	19823
#	37033
#	55022
#	78474
#	95523
#	113093
#	132737
#	150204
#	163826
#	189296
#
# Disc length: 2800 seconds
#
# Revision: 8
# Processed by: cddbd v1.5.1PL0 Copyright (c) Steve Scherf et al.
# Submitted via: CDex 1.50beta9
#
DISCID=860aee0b
DTITLE=Soundtrack - Blue Crush
DYEAR=2002
DGENRE=Soundtrack
TTITLE0=Lenny Kravitz - If I Could Fall In Love
TTITLE1=N.E.R.D. - Rock Star (Jason Nevins Remix Edit)
TTITLE2=Beenie Man  - Party Hard
TTITLE3=Blestenation - Cruel Summer (Blestenation Mix)
TTITLE4=Chicken - Big Love
TTITLE5=Beth Orton - Daybreaker
TTITLE6=Nikka Costa - Everybody Got Their Something
TTITLE7=Playgroup - Front 2 Back (Fatboy Slim Remix)
TTITLE8=Damian Marley - And Be Loved
TTITLE9=Zero 7 - Destiny
TTITLE10=Doves - Firesuite
EXTD=Jerry D. Setty\nhttp://www.blue-crush.com YEAR: 2002
EXTT0=
EXTT1=
EXTT2=
EXTT3=
EXTT4=
EXTT5=
EXTT6=
EXTT7=
EXTT8=
EXTT9=
EXTT10=
PLAYORDER=
